<svg xmlns="http://www.w3.org/2000/svg" viewBox="0 0 127.09 85.07"><title>Asset 5</title><path d="M127.09,36.44c-.06,20-16,35.69-36.2,35.62A36.09,36.09,0,0,1,55,35.87C55.17,16.24,71.84-.16,91.47,0A36.1,36.1,0,0,1,127.09,36.44Z" fill="#2b2b2b"/><path d="M23.51,40.29C25.76,19.62,34,14.15,46.15,11.21,56.77,8.65,67.28,16.59,75,32.41c5.7-.62,11.47-3.56,17.3,1.55,5.15,4.51,6.11,9.8,5.93,15.4,2.34,2.4,4.86,1.21,7,1.72,9,2.08,13.75,9.43,12.74,19.55C117.18,79,110.87,84.91,102,85c-26.63.13-53.27.19-79.9,0a22,22,0,0,1-22-21C-.5,52.43,8.29,42.37,20.09,41,21,40.84,22,40.59,23.51,40.29Z" fill="#f1f1f0"/></svg>