<svg xmlns="http://www.w3.org/2000/svg" viewBox="0 0 137.17 80.02"><title>Asset 7</title><path d="M115.24,61.35c-1.48-6.07-7-6.63-11.47-7.22-5.25-.68-6.29-2.92-6.42-7.74-.25-9.53-4.29-13.93-13.61-14-7.88-.1-13.43-1.69-15-10.51-.86-4.85-7.22-4.11-9.5-7.86C68.62-2.8,87.58-4.87,96.7,9.94a78,78,0,0,1,3.75,7.84c14.27-2.16,18.41.7,20.91,14.25a75,75,0,0,1,8.09,3.24c6.18,3.3,8.76,9.15,7.35,15.94-1.29,6.2-6.76,10.72-13.65,10.92A60.45,60.45,0,0,1,115.24,61.35Z" fill="#2b2b2b"/><path d="M23.51,35.24C25.76,14.57,34,9.1,46.15,6.17,56.77,3.6,67.28,11.54,75,27.36c5.7-.62,11.47-3.56,17.3,1.55,5.15,4.51,6.11,9.8,5.93,15.4,2.34,2.4,4.86,1.21,7,1.72,9,2.08,13.75,9.43,12.74,19.55C117.18,74,110.87,79.86,102,79.9c-26.63.13-53.27.19-79.9,0a22,22,0,0,1-22-21c-.52-11.51,8.27-21.57,20.07-23C21,35.8,22,35.55,23.51,35.24Z" fill="#f1f1f0"/></svg>