<svg xmlns="http://www.w3.org/2000/svg" viewBox="0 0 122.87 98.98"><title>Asset 8</title><path d="M103.22,54.95C101.9,49.51,97,49,92.95,48.48c-4.7-.61-5.63-2.61-5.75-6.93C87,33,83.36,29.08,75,29c-7.05-.09-12-1.51-13.42-9.42-.77-4.34-6.47-3.69-8.51-7,8.38-15,25.36-16.88,33.53-3.61a69.83,69.83,0,0,1,3.36,7c12.78-1.93,16.49.62,18.73,12.76a67.15,67.15,0,0,1,7.24,2.9c5.54,3,7.84,8.2,6.58,14.28a12.51,12.51,0,0,1-12.23,9.78A54.15,54.15,0,0,1,103.22,54.95Z" fill="#2b2b2b"/><path d="M21.06,31.57c2-18.51,9.37-23.41,20.28-26,9.51-2.29,18.92,4.81,25.85,19,5.1-.56,10.27-3.19,15.5,1.39,4.61,4,5.47,8.78,5.31,13.79,2.1,2.15,4.35,1.09,6.3,1.54,8,1.87,12.31,8.44,11.41,17.51-.75,7.51-6.4,12.79-14.38,12.83-23.86.12-47.71.17-71.57,0A19.68,19.68,0,0,1,0,52.75C-.45,42.44,7.43,33.43,18,32.16,18.85,32.06,19.69,31.84,21.06,31.57Z" fill="#f1f1f0"/><rect x="23.87" y="81.04" width="6" height="12.48" rx="3" ry="3" transform="translate(52.6 -0.34) rotate(33.48)" fill="#63a5ff"/><rect x="32.87" y="68.7" width="6" height="9.15" rx="3" ry="3" transform="translate(46.37 -7.63) rotate(33.48)" fill="#63a5ff"/><rect x="50.87" y="85.04" width="6" height="12.48" rx="3" ry="3" transform="matrix(0.83, 0.55, -0.55, 0.83, 59.28, -14.57)" fill="#63a5ff"/><rect x="59.87" y="72.7" width="6" height="9.15" rx="3" ry="3" transform="translate(53.05 -21.86) rotate(33.48)" fill="#63a5ff"/><rect x="42.95" y="74.43" width="6" height="12.48" rx="3" ry="3" transform="translate(39.77 173.3) rotate(-146.52)" fill="#63a5ff"/><rect x="33.95" y="90.1" width="6" height="9.15" rx="3" ry="3" transform="translate(15.55 194.01) rotate(-146.52)" fill="#63a5ff"/></svg>