<?xml version="1.0" encoding="utf-8"?>
<!-- Generator: Adobe Illustrator 21.0.0, SVG Export Plug-In . SVG Version: 6.00 Build 0)  -->
<svg version="1.1" id="Layer_1" xmlns="http://www.w3.org/2000/svg" xmlns:xlink="http://www.w3.org/1999/xlink" x="0px" y="0px"
	 viewBox="0 0 122.9 99" style="enable-background:new 0 0 122.9 99;" xml:space="preserve">
<style type="text/css">
	.st0{fill:#2B2B2B;}
	.st1{fill:#F1F1F0;}
	.st2{fill:#63A5FF;}
</style>
<title>Asset 8</title>
<path class="st0" d="M103.2,55c-1.3-5.4-6.2-6-10.3-6.5c-4.7-0.6-5.6-2.6-5.8-6.9C87,33,83.4,29.1,75,29c-7.1-0.1-12-1.5-13.4-9.4
	c-0.8-4.3-6.5-3.7-8.5-7C61.5-2.4,78.4-4.3,86.6,9c1.2,2.3,2.4,4.6,3.4,7c12.8-1.9,16.5,0.6,18.7,12.8c2.5,0.8,4.9,1.8,7.2,2.9
	c5.5,3,7.8,8.2,6.6,14.3c-1.3,5.7-6.4,9.8-12.2,9.8C107.9,55.6,105.6,55.4,103.2,55z"/>
<path class="st1" d="M21.1,31.6c2-18.5,9.4-23.4,20.3-26c9.5-2.3,18.9,4.8,25.9,19c5.1-0.6,10.3-3.2,15.5,1.4
	c4.6,4,5.5,8.8,5.3,13.8c2.1,2.2,4.3,1.1,6.3,1.5c8,1.9,12.3,8.4,11.4,17.5c-0.8,7.5-6.4,12.8-14.4,12.8c-23.9,0.1-47.7,0.2-71.6,0
	C9.2,71.7,0.4,63.3,0,52.8c-0.4-10.3,7.4-19.3,18-20.6C18.9,32.1,19.7,31.8,21.1,31.6z"/>
<path class="st2" d="M30.3,82.1L30.3,82.1c1.4,0.9,1.8,2.8,0.8,4.2l-3.6,5.4c-0.9,1.4-2.8,1.8-4.2,0.8l0,0c-1.4-0.9-1.8-2.8-0.8-4.2
	l3.6-5.4C27.1,81.5,28.9,81.2,30.3,82.1z"/>
<path class="st2" d="M38.4,69.5L38.4,69.5c1.4,0.9,1.8,2.8,0.8,4.2l-1.7,2.6c-0.9,1.4-2.8,1.8-4.2,0.8l0,0c-1.4-0.9-1.8-2.8-0.8-4.2
	l1.7-2.6C35.1,68.9,37,68.5,38.4,69.5z"/>
<path class="st2" d="M57.2,85.6L57.2,85.6c1.4,0.9,1.8,2.8,0.8,4.1l-3.6,5.4c-0.9,1.4-2.8,1.8-4.1,0.8l0,0c-1.4-0.9-1.8-2.8-0.8-4.1
	l3.6-5.4C54,85.1,55.8,84.7,57.2,85.6z"/>
<path class="st2" d="M65.4,73.5L65.4,73.5c1.4,0.9,1.8,2.8,0.8,4.2l-1.7,2.6c-0.9,1.4-2.8,1.8-4.2,0.8h0c-1.4-0.9-1.8-2.8-0.8-4.2
	l1.7-2.6C62.1,72.9,64,72.5,65.4,73.5z"/>
<path class="st2" d="M42.5,85.9L42.5,85.9c-1.4-0.9-1.8-2.8-0.8-4.2l3.6-5.4c0.9-1.4,2.8-1.8,4.2-0.8l0,0c1.4,0.9,1.8,2.8,0.8,4.2
	L46.7,85C45.7,86.4,43.9,86.8,42.5,85.9z"/>
<path class="st2" d="M34.4,98.5L34.4,98.5c-1.4-0.9-1.8-2.8-0.8-4.2l1.7-2.6c0.9-1.4,2.8-1.8,4.2-0.8l0,0c1.4,0.9,1.8,2.8,0.8,4.2
	l-1.7,2.6C37.7,99,35.8,99.4,34.4,98.5z"/>
</svg>
