<svg xmlns="http://www.w3.org/2000/svg" viewBox="0 0 106.87 94.2"><title>Asset 9</title><path d="M106.87,25.79A25.16,25.16,0,0,1,81.26,51,25.54,25.54,0,0,1,55.88,25.38,25.9,25.9,0,0,1,81.67,0,25.55,25.55,0,0,1,106.87,25.79Z" fill="#eb6e4c"/><path d="M21.06,26.79c2-18.51,9.37-23.41,20.28-26,9.51-2.29,18.92,4.81,25.85,19,5.1-.56,10.27-3.19,15.5,1.39,4.61,4,5.47,8.78,5.31,13.79,2.1,2.15,4.35,1.09,6.3,1.54,8,1.87,12.31,8.44,11.41,17.51-.75,7.51-6.4,12.79-14.38,12.83-23.86.12-47.71.17-71.57,0A19.68,19.68,0,0,1,0,48C-.45,37.66,7.43,28.65,18,27.39,18.85,27.28,19.69,27.06,21.06,26.79Z" fill="#f1f1f0"/><rect x="23.87" y="76.26" width="6" height="12.48" rx="3" ry="3" transform="translate(49.96 -1.13) rotate(33.48)" fill="#4b4b4d"/><rect x="32.87" y="63.93" width="6" height="9.15" rx="3" ry="3" transform="translate(43.73 -8.42) rotate(33.48)" fill="#4b4b4d"/><rect x="50.87" y="80.26" width="6" height="12.48" rx="3" ry="3" transform="translate(56.65 -15.36) rotate(33.48)" fill="#4b4b4d"/><rect x="59.87" y="67.93" width="6" height="9.15" rx="3" ry="3" transform="matrix(0.83, 0.55, -0.55, 0.83, 50.42, -22.65)" fill="#4b4b4d"/><rect x="42.95" y="69.65" width="6" height="12.48" rx="3" ry="3" transform="translate(42.41 164.54) rotate(-146.52)" fill="#4b4b4d"/><rect x="33.95" y="85.32" width="6" height="9.15" rx="3" ry="3" transform="translate(18.18 185.25) rotate(-146.52)" fill="#4b4b4d"/></svg>