<?xml version="1.0" encoding="utf-8"?>
<!-- Generator: Adobe Illustrator 21.0.0, SVG Export Plug-In . SVG Version: 6.00 Build 0)  -->
<svg version="1.1" id="Layer_1" xmlns="http://www.w3.org/2000/svg" xmlns:xlink="http://www.w3.org/1999/xlink" x="0px" y="0px"
	 viewBox="0 0 106.9 94.2" style="enable-background:new 0 0 106.9 94.2;" xml:space="preserve">
<style type="text/css">
	.st0{fill:#EB6E4C;}
	.st1{fill:#F1F1F0;}
	.st2{fill:#63A5FF;}
</style>
<title>Asset 9</title>
<path class="st0" d="M106.9,25.8c0,13.9-11.2,25.2-25.1,25.2c-0.2,0-0.3,0-0.5,0c-14.1-0.1-25.4-11.5-25.4-25.6
	C56.2,11.3,67.6,0.1,81.7,0C95.7,0.2,107,11.7,106.9,25.8z"/>
<path class="st1" d="M21.1,26.8c2-18.5,9.4-23.4,20.3-26c9.5-2.3,18.9,4.8,25.9,19c5.1-0.6,10.3-3.2,15.5,1.4
	c4.6,4,5.5,8.8,5.3,13.8c2.1,2.2,4.3,1.1,6.3,1.5c8,1.9,12.3,8.4,11.4,17.5c-0.8,7.5-6.4,12.8-14.4,12.8c-23.9,0.1-47.7,0.2-71.6,0
	C9.2,66.9,0.4,58.6,0,48c-0.4-10.3,7.4-19.4,18-20.6C18.9,27.3,19.7,27.1,21.1,26.8z"/>
<path class="st2" d="M30.3,77.3L30.3,77.3c1.4,0.9,1.8,2.8,0.8,4.2l-3.6,5.4c-0.9,1.4-2.8,1.8-4.2,0.8l0,0c-1.4-0.9-1.8-2.8-0.8-4.2
	l3.6-5.4C27.1,76.8,28.9,76.4,30.3,77.3z"/>
<path class="st2" d="M38.4,64.7L38.4,64.7c1.4,0.9,1.8,2.8,0.8,4.2l-1.7,2.6c-0.9,1.4-2.8,1.8-4.2,0.8l0,0c-1.4-0.9-1.8-2.8-0.8-4.2
	l1.7-2.6C35.1,64.2,37,63.8,38.4,64.7z"/>
<path class="st2" d="M57.3,81.3L57.3,81.3c1.4,0.9,1.8,2.8,0.8,4.2l-3.6,5.4c-0.9,1.4-2.8,1.8-4.2,0.8l0,0c-1.4-0.9-1.8-2.8-0.8-4.2
	l3.6-5.4C54.1,80.8,55.9,80.4,57.3,81.3z"/>
<path class="st2" d="M65.2,68.3L65.2,68.3c1.4,0.9,1.8,2.8,0.8,4.1l-1.7,2.6c-0.9,1.4-2.8,1.8-4.1,0.8h0c-1.4-0.9-1.8-2.8-0.8-4.1
	l1.7-2.6C62,67.8,63.9,67.4,65.2,68.3z"/>
<path class="st2" d="M42.5,81.1L42.5,81.1c-1.4-0.9-1.8-2.8-0.8-4.2l3.6-5.4c0.9-1.4,2.8-1.8,4.2-0.8l0,0c1.4,0.9,1.8,2.8,0.8,4.2
	l-3.6,5.4C45.7,81.6,43.9,82,42.5,81.1z"/>
<path class="st2" d="M34.4,93.7L34.4,93.7c-1.4-0.9-1.8-2.8-0.8-4.2l1.7-2.6c0.9-1.4,2.8-1.8,4.2-0.8l0,0c1.4,0.9,1.8,2.8,0.8,4.2
	l-1.7,2.6C37.7,94.2,35.8,94.6,34.4,93.7z"/>
</svg>
