<?xml version="1.0" encoding="utf-8"?>
<!-- Generator: Adobe Illustrator 21.0.0, SVG Export Plug-In . SVG Version: 6.00 Build 0)  -->
<svg version="1.1" id="Layer_1" xmlns="http://www.w3.org/2000/svg" xmlns:xlink="http://www.w3.org/1999/xlink" x="0px" y="0px"
	 viewBox="0 0 137.2 105.9" style="enable-background:new 0 0 137.2 105.9;" xml:space="preserve">
<style type="text/css">
	.st0{fill:#2B2B2B;}
	.st1{fill:#F1F1F0;}
	.st2{fill:#EB6E4C;}
</style>
<title>Asset 11</title>
<path class="st0" d="M115.2,61.3c-1.5-6.1-7-6.6-11.5-7.2c-5.3-0.7-6.3-2.9-6.4-7.7c-0.3-9.5-4.3-13.9-13.6-14
	c-7.9-0.1-13.4-1.7-15-10.5c-0.9-4.9-7.2-4.1-9.5-7.9C68.6-2.8,87.6-4.9,96.7,9.9c1.4,2.5,2.6,5.2,3.8,7.8
	c14.3-2.2,18.4,0.7,20.9,14.3c2.8,0.9,5.5,2,8.1,3.2c6.2,3.3,8.8,9.1,7.4,15.9c-1.3,6.2-6.8,10.7-13.7,10.9
	C120.5,62,117.9,61.8,115.2,61.3z"/>
<path class="st1" d="M23.5,35.2C25.8,14.6,34,9.1,46.2,6.2C56.8,3.6,67.3,11.5,75,27.4c5.7-0.6,11.5-3.6,17.3,1.5
	c5.2,4.5,6.1,9.8,5.9,15.4c2.3,2.4,4.9,1.2,7,1.7c9,2.1,13.8,9.4,12.7,19.6c-0.8,8.4-7.1,14.3-16,14.3c-26.6,0.1-53.3,0.2-79.9,0
	c-11.8,0-21.5-9.2-22-21c-0.5-11.5,8.3-21.6,20.1-23C21,35.8,22,35.5,23.5,35.2z"/>
<polygon class="st2" points="42,62 55,62 46,75.9 56,75.9 32,105.9 41,83.9 31,83.9 "/>
</svg>
