<svg xmlns="http://www.w3.org/2000/svg" viewBox="0 0 75.26 81.16"><title>Asset 12</title><path d="M66.64,52.11c1.2,3.86,9.84,3.47,6.12,9.39-3.31,5.27-6.37-2.93-10.14-1.54-1.27,1.2-.4,2.48,0,3.65.86,2.72,1.45,5.76-1.9,6.69s-4.34-2.12-5.06-4.74c-.89-3.2-1.64-6.44-2.59-9.62a7,7,0,0,0-6.49-5.36c-1.7-.07-4.12.87-4.7,3-.8,2.95-.89,5.91,1.75,8.29a70.21,70.21,0,0,1,5.65,5.65c1.84,2.08,5.7,4.06,3,7.28s-5.27.17-7.56-1.75a12,12,0,0,0-2.47-1.27c-2,3.12,1.49,9.63-4.88,9.33-5.16-.24-2.18-6.14-4.08-9-2.79-.39-3.47,2.62-5.52,3.44-1.71.69-3.25.8-4.49-.7a3.41,3.41,0,0,1,.31-4.57c2.88-3.22,6.46-5.88,9-9.34,2.21-3,3-7.08-1.22-9.43s-7,.05-8.6,3.84a56.35,56.35,0,0,0-2.93,9.52c-.6,2.71-1.11,6-4.4,5.49-4.33-.65-3-4.29-2.39-7.21.19-.93.21-1.89.32-2.94-4.05-2.1-7.63,6.94-10.93,1-3-5.47,4.34-5.35,6.35-8.8-2.22-1-4.48-1.85-6.63-3C.5,48.64-.54,47.3.31,45.4a3.49,3.49,0,0,1,4.1-2.09c4.21.89,8.33,2.3,12.56,3s8.32-.45,8.22-5.73c-.09-4.7-3.77-5.9-7.82-5.28a92.26,92.26,0,0,0-9.65,2.35C4.8,38.4,1.35,39.74.18,35.73c-1-3.55,2.49-4,4.93-4.89,1.21-.45,2.35-1.07,3.57-1.64C7,25.68-.43,25.83,2.29,20.71c3.08-5.82,6.57,1.52,10.18,1,1.73-1.76.3-3.64,0-5.44-.39-2.21-.15-4.13,2.26-4.74,3-.75,4.08,1.12,4.75,3.71A80.71,80.71,0,0,0,23,26.61c1.37,3.2,3.87,5.55,7.82,3.63,4.46-2.17,4-6,2-9.25C31.1,18.22,28.21,16.2,26,13.75c-1.91-2.08-5.45-4.13-2.4-7.36C26.06,3.74,28.3,6.32,30.33,8a16,16,0,0,0,2.51,1.46c2.52-3-.7-9.69,4.92-9.49s2.52,6.56,4.57,10.24c1.31-1.07,2.56-2,3.7-3.05,1.9-1.76,4-2.84,6.1-.7,2.27,2.33.38,4.22-1.28,5.93-2.78,2.87-6,5.41-8.24,8.67s-2.4,6.93,2,9.17c4.08,2.07,6.25-.6,7.84-3.54,1.25-2.3,1.73-5,2.57-7.53,1.06-3.17.13-8.75,5.53-7.59,5.79,1.25.75,6.12,1.64,9.36,3.8,2.43,7.83-6.36,10.83-.47,2.74,5.37-4.32,5.3-6.51,8.68A48.07,48.07,0,0,0,71,31.12c2.34.75,4.91,1.68,4.05,4.6-1,3.26-3.61,3.06-6.49,2.11A64.63,64.63,0,0,0,58,35.21c-4.09-.61-7.78.87-7.7,5.46.09,5,3.88,6.43,8.4,5.55,2.91-.56,5.74-1.55,8.63-2.24s6.49-2.25,7.66,1.7c1.22,4.14-3.12,4.24-5.61,5.46A24.12,24.12,0,0,1,66.64,52.11Z" fill="#49494b"/><path d="M38.13,46.34c-4-.41-5.86-2.37-5.74-5.91.1-3,1.86-5.09,4.91-5.18,3.38-.1,5.7,1.68,5.88,5.29S40.88,45.66,38.13,46.34Z" fill="#ededed"/></svg>