<?xml version="1.0" encoding="utf-8"?>
<!-- Generator: Adobe Illustrator 21.0.0, SVG Export Plug-In . SVG Version: 6.00 Build 0)  -->
<svg version="1.1" id="Layer_1" xmlns="http://www.w3.org/2000/svg" xmlns:xlink="http://www.w3.org/1999/xlink" x="0px" y="0px"
	 viewBox="0 0 53.3 33.1" style="enable-background:new 0 0 53.3 33.1;" xml:space="preserve">
<style type="text/css">
	.st0{fill:#2B2B2B;}
</style>
<title>Asset 13</title>
<path class="st0" d="M27.4,27.2c-5.6,0-11.3,0-16.9,0c-0.9,0-2.3,0.1-2.3-1.2c0-1.2,1-1.5,2.1-1.5c11.6,0,23.2,0,34.8,0
	c1,0,2.3,0.1,2.3,1.4c0,1.7-1.6,1.4-2.6,1.4C39,27.2,33.2,27.2,27.4,27.2z"/>
<path class="st0" d="M19.3,8.9H5.8c-1.1,0-2.7,0.2-2.7-1.4c0-1.1,1.3-1.3,2.4-1.3c9.3,0,18.7,0,28,0c1.1,0,2.3,0.1,2.4,1.2
	c0.1,1.7-1.4,1.4-2.6,1.4C28.7,8.9,24,8.9,19.3,8.9z"/>
<path class="st0" d="M19.1,18.7c6,0,12,0,18,0c0.9,0,2.2-0.1,2.1,1.4c-0.1,1-1.1,1.1-1.9,1.1c-11.8,0-23.6,0-35.4,0
	C1.1,21.1,0,21.1,0,20c0-1.5,1.3-1.3,2.2-1.3C7.8,18.7,13.5,18.7,19.1,18.7z"/>
<path class="st0" d="M33.7,15.1c-5.5,0-11,0-16.5,0c-1,0-2.7,0.6-2.8-1s1.6-1.3,2.6-1.3c11.1,0,22.3,0,33.4,0c1,0,2.8-0.4,2.8,1.1
	c0,2-2,1.3-3.1,1.3C44.7,15.2,39.2,15.1,33.7,15.1z"/>
<path class="st0" d="M27.1,33.1c-3.5,0-7,0-10.5,0c-0.9,0-2.2,0.4-2.4-1.1c-0.1-1.2,0.9-1.7,2-1.7c7,0,14,0,20.9,0
	c1,0,2.2,0.4,2.2,1.5c0,1.4-1.4,1.2-2.3,1.2C33.7,33.1,30.4,33.1,27.1,33.1z"/>
<path class="st0" d="M24.1,0h7c0.9,0,1.7,0.3,1.7,1.3c0,0.8-0.7,1.5-1.5,1.5c0,0-0.1,0-0.1,0c-4.7,0-9.3,0-14,0
	c-0.9,0.1-1.6-0.6-1.7-1.4c0,0,0,0,0,0C15.4,0,16.6,0,17.6,0C19.8,0,21.9,0,24.1,0z"/>
</svg>
